<svg id="svg2" xmlns:inkscape="http://www.inkscape.org/namespaces/inkscape" xmlns:rdf="http://www.w3.org/1999/02/22-rdf-syntax-ns#" xmlns="http://www.w3.org/2000/svg" sodipodi:docname="mp_new_logo_02.svg" xmlns:osb="http://www.openswatchbook.org/uri/2009/osb" height="290" width="380" version="1.1" xmlns:cc="http://creativecommons.org/ns#" xmlns:sodipodi="http://sodipodi.sourceforge.net/DTD/sodipodi-0.dtd" inkscape:version="0.91 r13725" viewBox="0 0 380.00001 289.99998" xmlns:dc="http://purl.org/dc/elements/1.1/">
 <sodipodi:namedview id="base" inkscape:snap-intersection-paths="true" inkscape:showpageshadow="false" inkscape:zoom="0.70710678" borderopacity="1" inkscape:current-layer="layer1" inkscape:cx="240.45809" inkscape:cy="15.570323" inkscape:snap-grids="false" borderlayer="false" inkscape:object-paths="true" inkscape:window-maximized="1" inkscape:snap-bbox="true" showgrid="false" units="px" showguides="false" bordercolor="#ffffff" inkscape:window-x="1920" inkscape:window-y="24" inkscape:snap-smooth-nodes="true" inkscape:object-nodes="true" inkscape:window-width="1920" inkscape:pageopacity="1" inkscape:pageshadow="2" pagecolor="#35363c" inkscape:snap-object-midpoints="true" inkscape:snap-to-guides="true" inkscape:document-units="px" inkscape:window-height="1056" showborder="true">
  <inkscape:grid id="grid6012" type="xygrid"/>
 </sodipodi:namedview>
 <g id="layer4" inkscape:label="bg" inkscape:groupmode="layer" transform="translate(0 -762.36)">
  <text id="text4322" style="word-spacing:0px;letter-spacing:0px" line-height="125%" xml:space="preserve" font-size="40px" y="75.862167" x="1116" font-family="sans-serif" sodipodi:linespacing="125%" fill="#000000"><tspan id="tspan4324" sodipodi:role="line" x="1116" y="75.862167"/></text>
 </g>
 <g id="layer1" transform="translate(0 -762.36)" inkscape:groupmode="layer" inkscape:label="calendar">
  <path id="path8469" d="m188.16 767.37a185 140 0 0 0 -18.459 0.83789l-12.768 1.4082a185 140 0 0 0 -149.5 160.36 185 140 0 0 0 209.27 115.92 185 140 0 0 0 156.8 -156.32 185 140 0 0 0 -185.34 -122.21zm-11.604 51.002h0.002c1.7134 0.0164 3.6026 0.32784 4.9512 1.4668 1.2422 2.9954 1.455 6.3322 1.4688 9.7324 25.887-0.0101 51.774-0.0117 77.66-0.0117-0.0297-0.25761-0.0613-0.51537-0.11328-0.76368-1.1254-4.2041 0.82154-9.1789 5.6523-9.0527 2.0973-0.19675 4.3683 0.48602 5.8301 2.041 0.9271 2.4348 0.91706 5.0783 0.66015 7.7754 7.9709-0.0001 15.941 0 23.912 0 10.798-1.69 22.439 5.6025 23.852 16.781 0.5609 38.652 0.0705 77.358 0.23632 116.03 1.6659 10.745-5.6934 22.265-16.795 23.664-39.062 0.5646-78.179 0.072-117.26 0.2383-5.3777 1.3311-16.583-2.2663-5.916-4.1602 37.092-1.8849 74.287-1.9786 111.42-3.1816 7.2802 0.5624 17.862-0.2071 19.617-9.0254 0.19871-38.321-0.86111-76.702-1.1328-115.04 0.5683-5.8207-0.0201-13.961-7.1113-15.32-10.572-0.24639-21.147-0.42929-31.725-0.58984 0.004 0.39765 0.0189 0.79367 0.0469 1.1856 1.1699 5.6101-5.9909 7.2898-9.7363 4.7598-1.8028-1.6109-2.1904-3.7757-2.1094-6.1172-25.626-0.33233-51.262-0.50601-76.895-0.74219 0.0563 0.78478 0.13377 1.5608 0.2539 2.3242 1.8824 6.0829-6.6412 8.2984-10.467 5.1758-1.3188-2.2777-1.559-4.902-1.5176-7.6152-8.624-0.0886-17.245-0.18501-25.867-0.30664-7.3774-1.1016-17.098 0.35065-19.41 8.6992-1.8366 21.939-1.9042 44.091-3.0625 66.111 0.19827 7.9332-1.5395 12.107-4.5273 2.4121-0.32391-20.405-0.0456-40.924-0.13867-61.373-1.8884-11.51 6.9138-23.68 18.902-23.881 11.445-0.0122 22.891-0.0117 34.336-0.0117-0.0396-0.73362-0.11461-1.4544-0.24414-2.1582-1.2456-4.0802 0.26024-9.2899 5.2305-9.041zm-71.758 11.162 0.002 0.002c1.2271 0.0267 2.4627 0.12437 3.6484 0.40039 4.2956 1.2944 1.0944 6.174-1.8594 6.9766-14.121 3.1526-27.259 10.645-37.18 21.209-16.989 16.905-22.478 42.598-16.605 65.369 3.4216 15.838 12.416 30.428 25.393 40.404 24.705 19.825 62.586 19.177 87.623 0.6172 8.2618-5.5404 13.979-13.694 19.441-21.772 1.5836-3.1134 6.8743-2.8259 6.4414 1.2617-0.42114 2.1344-1.1271 4.1789-2.0352 6.1426-15.412 24.893-45.232 39.532-74.186 38.123-0.51887-0.03-1.0386-0.068-1.5566-0.1074-0.48843-0.034-0.97519-0.066-1.4629-0.1094-2.2755-0.2108-4.5402-0.5121-6.7871-0.9082-0.11188-0.021-0.22414-0.041-0.33594-0.061-0.76268-0.1376-1.5212-0.3018-2.2793-0.4609-0.75289-0.1634-1.5056-0.3168-2.2539-0.5039-0.0224-0.01-0.044-0.01-0.0664-0.018-4.7315-1.1883-9.3658-2.8544-13.828-5.0293-22.859-9.882-38.807-31.526-44.244-55.475-2.9263-14.133-2.2453-29.065 2.2852-42.752 7.864-27.36 32.393-47.593 59.846-53.311zm167.83 30.086v0.002c7.3062-0.19544 15.514 2.7448 17.357 10.457 0.8164 22.907 0.0681 45.94 0.32617 68.891 1.5194 7.488-3.4972 15.294-11.082 16.584-21.768 0.9973-43.679 0.062-65.496 0.3887-3.5206 0.4061-18.706 0.1869-11.113-3.582 11.865-1.1722 23.916-1.645 35.965-2.1231 0.8662-13.266 1.1073-26.545 1.0703-39.83-13.478 0.0657-26.956 0.12649-40.434 0.0547-0.1063 5.4452-1.0157 13.259-3.8477 7.3066-0.22534-2.4351-0.39506-4.8812-0.54101-7.332-5.5689-0.0446-11.137-0.10952-16.705-0.22852-7.1019 0.39492-11.783-1.8827-2.3887-4.4082 6.2761-0.15135 12.553-0.33878 18.83-0.52148-0.52589-12.625-0.34392-25.392-0.79297-38.031-6.1356-0.14458-12.271-0.29787-18.402-0.48633-6.0902 0.96232-14.71-3.0191-19.182 2.7285-2.5002 8.9602-1.3932 18.703-2.6934 27.916 0.12069 3.4666-1.3702 18.343-4.1914 9.1348-1.5555-10.006-0.14979-20.504-0.62891-30.688-1.5715-8.3437 5.757-16.013 13.977-15.947 35.639-0.0333 71.279-0.004 106.92-0.0137 0.9857-0.15126 2.011-0.24319 3.0547-0.27149zm-173.79 6.4024c1.2257-0.0385 1.7781 0.43946-0.07031 2.1738-3.9859 4.2016-9.2506 7.8286-11.514 13.604-5.4097 9.1892-6.4921 20.35-3.8887 30.555 0.98664 8.3675 5.3894 15.378 11.41 20.801 0.034 0.0434 0.06551 0.0903 0.09961 0.13281 7.9399 10.608 21.645 13.904 34.277 13.707 9.4513-0.8022 19.223-4.3682 26.283-10.844 1.5585-2.5102 5.6706-5.7677 6.3496-4.0703-5.6863 9.4756-14.559 17.058-25.084 20.678-12.458 4.7609-26.495 3.3337-38.178-2.6348-6.0963-3.3323-11.514-7.9236-15.727-13.436-6.5705-8.9413-10.194-20.041-9.2676-31.27 0.6629-16.552 11.038-31.584 25.309-39.396zm101.61 1.3809c-0.8315 12.562-0.94757 25.161-1.2598 37.746 13.47-0.40796 26.943-0.89177 40.418-1.4277-0.1056-11.826-0.36354-23.653-0.55274-35.475-12.865-0.31798-25.737-0.55995-38.605-0.84375zm45.672 1.0332c-0.5865 11.677-0.73977 23.363-0.75977 35.053 12.169-0.49906 24.338-1.0311 36.51-1.6172-0.1197-5.0643-0.21547-10.125-0.23047-15.176-1.1158-5.5168 2.7721-14.909-4.5996-17.162-10.295-0.47772-20.605-0.81587-30.92-1.0976zm13.002 41.906c-4.5835-0.001-9.1665 0.0287-13.75 0.0469 0.018 10.853 0.0885 21.706-0.0117 32.555 0.1025 2.395 0.34041 4.9194 0.12891 7.0137 4.9251-0.2074 9.8447-0.4381 14.744-0.7422 7.1151-1.5607 16.771 2.1256 22.07-4.2675 0.3624-11.423 0.0851-22.931-0.21484-34.441-7.6552-0.10929-15.311-0.16406-22.967-0.16406z" inkscape:connector-curvature="0" fill="#ffefef"/>
 </g>
</svg>
