<svg id="svg2" xmlns:inkscape="http://www.inkscape.org/namespaces/inkscape" xmlns:rdf="http://www.w3.org/1999/02/22-rdf-syntax-ns#" xmlns="http://www.w3.org/2000/svg" sodipodi:docname="mp_new_logo_02_bg.svg" xmlns:osb="http://www.openswatchbook.org/uri/2009/osb" height="180" width="290" version="1.1" xmlns:cc="http://creativecommons.org/ns#" xmlns:sodipodi="http://sodipodi.sourceforge.net/DTD/sodipodi-0.dtd" inkscape:version="0.91 r13725" viewBox="0 0 290.00001 179.99999" xmlns:dc="http://purl.org/dc/elements/1.1/">
 <sodipodi:namedview id="base" inkscape:snap-intersection-paths="true" inkscape:zoom="0.70710678" borderopacity="1" inkscape:current-layer="layer1" inkscape:cx="-35.962801" inkscape:cy="121.98857" inkscape:snap-grids="false" inkscape:object-paths="true" inkscape:window-maximized="1" inkscape:snap-bbox="true" showgrid="false" units="px" showguides="false" bordercolor="#ffffff" inkscape:window-x="1920" inkscape:window-y="24" inkscape:snap-smooth-nodes="true" inkscape:object-nodes="true" inkscape:window-width="1920" inkscape:pageopacity="1" inkscape:pageshadow="2" pagecolor="#35363c" inkscape:snap-object-midpoints="true" inkscape:snap-to-guides="true" inkscape:document-units="px" inkscape:window-height="1056">
  <inkscape:grid id="grid6012" type="xygrid"/>
 </sodipodi:namedview>
 <g id="layer4" inkscape:label="bg" inkscape:groupmode="layer" transform="translate(0 -872.36)">
  <text id="text4322" style="word-spacing:0px;letter-spacing:0px" line-height="125%" xml:space="preserve" font-size="40px" y="75.862167" x="1116" font-family="sans-serif" sodipodi:linespacing="125%" fill="#000000"><tspan id="tspan4324" sodipodi:role="line" x="1116" y="75.862167"/></text>
 </g>
 <g id="layer1" transform="translate(0 -872.36)" inkscape:groupmode="layer" inkscape:label="calendar">
  <path id="path8252" style="color-rendering:auto;text-decoration-color:#000000;color:#000000;isolation:auto;mix-blend-mode:normal;shape-rendering:auto;solid-color:#000000;block-progression:tb;text-decoration-line:none;text-decoration-style:solid;image-rendering:auto;white-space:normal;text-indent:0;text-transform:none" d="m140.65 877.37c-4.9702-0.24893-6.4758 4.9619-5.2302 9.0422 0.12953 0.7038 0.20341 1.4248 0.24304 2.1584-11.445 0-22.89-0.0001-34.336 0.0121-11.989 0.20059-20.79 12.37-18.902 23.88 0.0931 20.449-0.18559 40.967 0.13832 61.372 2.9878 9.6947 4.7251 5.5221 4.5268-2.4112 1.1583-22.02 1.2261-44.172 3.0627-66.111 2.3124-8.3486 12.032-9.8002 19.409-8.6986 8.6217 0.12163 17.245 0.21748 25.869 0.30605-0.0414 2.7133 0.19871 5.3368 1.5175 7.6144 3.8256 3.1226 12.349 0.90722 10.466-5.1757-0.12013-0.76344-0.19857-1.5394-0.25489-2.3242 25.632 0.23618 51.269 0.41009 76.895 0.74242-0.081 2.3415 0.3074 4.5068 2.1102 6.1177 3.7454 2.5301 10.905 0.84909 9.7354-4.761-0.028-0.39188-0.043-0.7871-0.047-1.1848 10.578 0.16055 21.154 0.34406 31.725 0.59045 7.0912 1.359 7.6796 9.499 7.1113 15.32 0.2717 38.343 1.3308 76.723 1.1321 115.04-1.755 8.8183-12.337 9.5888-19.617 9.0264-37.131 1.203-74.326 1.2963-111.42 3.1812-10.667 1.8939 0.53823 5.4899 5.9159 4.1588 39.083-0.1666 78.2 0.3276 117.26-0.237 11.102-1.399 18.459-12.92 16.793-23.665-0.1658-38.672 0.3258-77.377-0.2351-116.03-1.4126-11.179-13.054-18.471-23.851-16.781-7.9709 0-15.942-0.0001-23.913 0 0.2569-2.6971 0.2671-5.3416-0.66-7.7764-1.4618-1.555-3.7335-2.2366-5.8308-2.0399-4.8308-0.12618-6.7766 4.848-5.6512 9.0521 0.052 0.24831 0.083 0.50664 0.1127 0.76425-25.887 0-51.773 0-77.66 0.0101-0.0137-3.4003-0.22793-6.736-1.4701-9.7314-1.3486-1.139-3.2382-1.4508-4.9517-1.4671zm-71.757 11.163c-27.452 5.7171-51.983 25.951-59.847 53.311-4.5305 13.687-5.2124 28.618-2.2861 42.751 5.4374 23.949 21.386 45.594 44.245 55.476 4.4623 2.1749 9.096 3.8413 13.827 5.0296 0.0224 0.01 0.0448 0.01 0.0672 0.016 0.74827 0.1871 1.5016 0.3421 2.2545 0.5055 0.75808 0.1591 1.5156 0.3224 2.2782 0.46 0.1118 0.02 0.22403 0.039 0.33591 0.06 2.2469 0.3961 4.5118 0.6977 6.7873 0.9085 0.4877 0.043 0.97572 0.077 1.4642 0.1105 0.51807 0.039 1.0362 0.077 1.555 0.1066 28.953 1.4089 58.774-13.231 74.186-38.124 0.90808-1.9637 1.6141-4.007 2.0352-6.1413 0.43287-4.0877-4.8578-4.3753-6.4415-1.2619-5.4626 8.0778-11.179 16.231-19.441 21.771-25.037 18.559-62.917 19.207-87.622-0.618-12.977-9.9762-21.971-24.564-25.393-40.403-5.8724-22.771-0.38355-48.466 16.606-65.371 9.9206-10.564 23.058-18.056 37.179-21.208 2.9538-0.80257 6.155-5.6822 1.8593-6.9766-1.1858-0.27602-2.4224-0.37419-3.6495-0.40088zm167.84 30.09c-1.0437 0.0283-2.069 0.1193-3.0547 0.27056-35.639 0.0101-71.278-0.0192-106.92 0.0141-8.2196-0.0657-15.549 7.6021-13.978 15.946 0.47912 10.183-0.92519 20.683 0.63032 30.689 2.8212 9.2086 4.3116-5.6684 4.1909-9.135 1.3002-9.213 0.19299-18.956 2.6932-27.917 4.4718-5.7476 13.092-1.7667 19.182-2.729 6.1311 0.18846 12.266 0.34325 18.402 0.48783 0.44905 12.639 0.26647 25.406 0.79235 38.031-6.2774 0.1827-12.554 0.36995-18.83 0.5213-9.3942 2.5255-4.713 4.8025 2.3889 4.4076 5.5685 0.119 11.137 0.18442 16.706 0.229 0.14595 2.4508 0.31606 4.897 0.5414 7.3322 2.832 5.952 3.7408-1.8612 3.8471-7.3065 13.477 0.0718 26.955 0.0101 40.433-0.0556 0.037 13.285-0.2048 26.564-1.071 39.83-12.049 0.4781-24.099 0.9506-35.964 2.1228-7.5925 3.7689 7.592 3.9883 11.113 3.5822 21.817-0.3267 43.727 0.6102 65.496-0.3871 7.5848-1.2899 12.602-9.0977 11.083-16.586-0.2581-22.951 0.4904-45.983-0.326-68.89-1.843-7.7122-10.052-10.653-17.358-10.458zm-173.79 6.402c-14.27 7.812-24.647 22.844-25.31 39.396-0.92604 11.229 2.6965 22.328 9.2671 31.27 4.2126 5.5119 9.632 10.104 15.728 13.436 11.683 5.9685 25.719 7.3951 38.177 2.6342 10.525-3.6193 19.398-11.202 25.084-20.677-0.679-1.6974-4.7921 1.5596-6.3506 4.0698-7.0605 6.4755-16.83 10.041-26.282 10.843-12.632 0.1966-26.338-3.0983-34.278-13.707-0.0341-0.0425-0.0648-0.089-0.0988-0.13235-6.0208-5.4228-10.424-12.434-11.411-20.802-2.6034-10.204-1.5211-21.366 3.8886-30.555 2.2631-5.7749 7.5278-9.4002 11.514-13.602 1.8484-1.7344 1.2968-2.2127 0.0711-2.1742zm101.61 1.3803c12.868 0.2838 25.74 0.52524 38.606 0.84322 0.1892 11.822 0.4457 23.65 0.5513 35.476-13.474 0.53596-26.948 1.0198-40.418 1.4277 0.3122-12.585 0.4292-25.184 1.2607-37.747zm45.671 1.0328c10.315 0.28178 20.624 0.62028 30.919 1.098 7.3717 2.2533 3.4841 11.645 4.5999 17.162 0.015 5.0503 0.1114 10.111 0.2311 15.176-12.172 0.58611-24.342 1.1183-36.511 1.6174 0.02-11.69 0.1743-23.377 0.7608-35.053zm13.002 41.907c7.6554 0 15.311 0.0546 22.966 0.16389 0.2999 11.511 0.5778 23.018 0.2154 34.441-5.2991 6.3931-14.954 2.7066-22.069 4.2673-4.8994 0.3041-9.8191 0.5351-14.744 0.7425 0.2115-2.0943-0.028-4.6193-0.1305-7.0142 0.1002-10.849 0.03-21.702 0.012-32.555 4.5835-0.0182 9.1669-0.0465 13.75-0.0455z" inkscape:connector-curvature="0" stroke="#fff" stroke-width=".000999" fill="#fff"/>
 </g>
</svg>
